<svg xmlns="http://www.w3.org/2000/svg" viewBox="0 0 341.28599999999994 642.8000000000001" width="341.28599999999994" height="642.8000000000001" style="background:#fbfaf6">
<style>text { font-family: Inter, -apple-system, BlinkMacSystemFont, "Segoe UI", system-ui, sans-serif; }</style>
<defs>
  <marker id="arrowhead" markerWidth="8" markerHeight="5" refX="7" refY="2.5" orient="auto">
    <polygon points="0 0, 8 2.5, 0 5" fill="#6f8f7a" stroke="#6f8f7a" stroke-width="1.2" stroke-linejoin="round" />
  </marker>
  <marker id="arrowhead-start" markerWidth="8" markerHeight="5" refX="1" refY="2.5" orient="auto-start-reverse">
    <polygon points="8 0, 0 2.5, 8 5" fill="#6f8f7a" stroke="#6f8f7a" stroke-width="1.2" stroke-linejoin="round" />
  </marker>
</defs>
<g class="edge-overlays" fill="#6f8f7a" stroke="#6f8f7a" stroke-width="2.4" stroke-linecap="round">
  <line x1="170.643" y1="100" x2="170.643" y2="132" />
  <polygon points="164.643,132 176.643,132 170.643,140" stroke-width="0" />
  <line x1="170.643" y1="202" x2="170.643" y2="234" />
  <polygon points="164.643,234 176.643,234 170.643,242" stroke-width="0" />
  <line x1="170.643" y1="304" x2="170.643" y2="336" />
  <polygon points="164.643,336 176.643,336 170.643,344" stroke-width="0" />
  <line x1="170.643" y1="406" x2="170.643" y2="438" />
  <polygon points="164.643,438 176.643,438 170.643,446" stroke-width="0" />
  <line x1="170.643" y1="508" x2="170.643" y2="540" />
  <polygon points="164.643,540 176.643,540 170.643,548" stroke-width="0" />
</g>
<g class="node" data-id="A" data-label="Input
Video + audio clips" data-shape="rectangle">
  <rect x="95.20449999999997" y="40" width="150.877" height="53.800000000000004" rx="0" ry="0" fill="#f1f0e8" stroke="#d7d4c7" stroke-width="0.75" />
  <text x="170.64299999999997" y="66.9" text-anchor="middle" font-size="13" font-weight="500" fill="#1f211a"><tspan x="170.64299999999997" dy="-3.9000000000000012">Input</tspan><tspan x="170.64299999999997" dy="16.900000000000002">Video + audio clips</tspan></text>
</g>
<g class="node" data-id="B" data-label="Training
Gemma 4 E4B LoRA / QLoRA" data-shape="rectangle">
  <rect x="66.676" y="141.8" width="207.93399999999994" height="53.800000000000004" rx="0" ry="0" fill="#f1f0e8" stroke="#d7d4c7" stroke-width="0.75" />
  <text x="170.64299999999997" y="168.70000000000002" text-anchor="middle" font-size="13" font-weight="500" fill="#1f211a"><tspan x="170.64299999999997" dy="-3.9000000000000012">Training</tspan><tspan x="170.64299999999997" dy="16.900000000000002">Gemma 4 E4B LoRA / QLoRA</tspan></text>
</g>
<g class="node" data-id="C" data-label="Packaging
GGUF Q4_K_M + BF16 projector" data-shape="rectangle">
  <rect x="56.6725" y="243.60000000000002" width="227.94099999999995" height="53.800000000000004" rx="0" ry="0" fill="#f1f0e8" stroke="#d7d4c7" stroke-width="0.75" />
  <text x="170.64299999999997" y="270.5" text-anchor="middle" font-size="13" font-weight="500" fill="#1f211a"><tspan x="170.64299999999997" dy="-3.9000000000000012">Packaging</tspan><tspan x="170.64299999999997" dy="16.900000000000002">GGUF Q4_K_M + BF16 projector</tspan></text>
</g>
<g class="node" data-id="D" data-label="On-device runtime
llama.cpp + mtmd + Metal" data-shape="rectangle">
  <rect x="80.3845" y="345.40000000000003" width="180.51699999999994" height="53.800000000000004" rx="0" ry="0" fill="#f1f0e8" stroke="#d7d4c7" stroke-width="0.75" />
  <text x="170.64299999999997" y="372.3" text-anchor="middle" font-size="13" font-weight="500" fill="#1f211a"><tspan x="170.64299999999997" dy="-3.9000000000000012">On-device runtime</tspan><tspan x="170.64299999999997" dy="16.900000000000002">llama.cpp + mtmd + Metal</tspan></text>
</g>
<g class="node" data-id="E" data-label="Constrained output
GBNF 9-bit behavior code" data-shape="rectangle">
  <rect x="74.82699999999998" y="447.20000000000005" width="191.63199999999998" height="53.800000000000004" rx="0" ry="0" fill="#f1f0e8" stroke="#d7d4c7" stroke-width="0.75" />
  <text x="170.64299999999997" y="474.1" text-anchor="middle" font-size="13" font-weight="500" fill="#1f211a"><tspan x="170.64299999999997" dy="-3.9000000000000012">Constrained output</tspan><tspan x="170.64299999999997" dy="16.900000000000002">GBNF 9-bit behavior code</tspan></text>
</g>
<g class="node" data-id="F" data-label="App layer
B01-B10 report + local explanation chat" data-shape="rectangle">
  <rect x="40" y="549" width="261.28599999999994" height="53.800000000000004" rx="0" ry="0" fill="#f1f0e8" stroke="#d7d4c7" stroke-width="0.75" />
  <text x="170.64299999999997" y="575.9" text-anchor="middle" font-size="13" font-weight="500" fill="#1f211a"><tspan x="170.64299999999997" dy="-3.9000000000000012">App layer</tspan><tspan x="170.64299999999997" dy="16.900000000000002">B01-B10 report + local explanation chat</tspan></text>
</g>
</svg>
